<mxfile host="65bd71144e">
    <diagram id="CUubei5NfWrYBV8T60MC" name="第 1 页">
        <mxGraphModel dx="886" dy="526" grid="1" gridSize="10" guides="1" tooltips="1" connect="1" arrows="1" fold="1" page="1" pageScale="1" pageWidth="827" pageHeight="1169" math="0" shadow="0">
            <root>
                <mxCell id="0"/>
                <mxCell id="1" parent="0"/>
                <mxCell id="2" value="注册" style="swimlane;childLayout=stackLayout;resizeParent=1;resizeParentMax=0;startSize=20;html=1;rounded=0;shadow=0;glass=0;swimlaneFillColor=default;" vertex="1" parent="1">
                    <mxGeometry x="120" y="420" width="350" height="330" as="geometry"/>
                </mxCell>
                <mxCell id="3" value="用户" style="swimlane;startSize=20;html=1;rounded=0;swimlaneFillColor=default;" vertex="1" parent="2">
                    <mxGeometry y="20" width="170" height="310" as="geometry"/>
                </mxCell>
                <mxCell id="4" value="" style="edgeStyle=none;html=1;" edge="1" parent="3" source="5" target="6">
                    <mxGeometry relative="1" as="geometry"/>
                </mxCell>
                <mxCell id="5" value="注册界面" style="rounded=0;whiteSpace=wrap;html=1;gradientColor=none;" vertex="1" parent="3">
                    <mxGeometry x="47.5" y="30" width="75" height="40" as="geometry"/>
                </mxCell>
                <mxCell id="6" value="输入用户ID、用户名、密码" style="rounded=0;whiteSpace=wrap;html=1;gradientColor=none;" vertex="1" parent="3">
                    <mxGeometry x="47.5" y="100" width="75" height="40" as="geometry"/>
                </mxCell>
                <mxCell id="7" value="跳转至登陆页面" style="rounded=0;whiteSpace=wrap;html=1;gradientColor=none;" vertex="1" parent="3">
                    <mxGeometry x="47.5" y="240" width="75" height="40" as="geometry"/>
                </mxCell>
                <mxCell id="8" value="系统" style="swimlane;startSize=20;html=1;rounded=0;swimlaneFillColor=default;" vertex="1" parent="2">
                    <mxGeometry x="170" y="20" width="180" height="310" as="geometry"/>
                </mxCell>
                <mxCell id="9" value="&lt;div style=&quot;line-height: 120%;&quot;&gt;&lt;span style=&quot;background-color: initial;&quot;&gt;判断格式及用户ID占用情况&lt;/span&gt;&lt;br&gt;&lt;/div&gt;" style="rhombus;whiteSpace=wrap;html=1;gradientColor=none;align=center;spacingLeft=5;spacingRight=5;" vertex="1" parent="8">
                    <mxGeometry x="35" y="150" width="110" height="60" as="geometry"/>
                </mxCell>
                <mxCell id="10" value="" style="edgeStyle=none;html=1;" edge="1" parent="2" source="6" target="9">
                    <mxGeometry relative="1" as="geometry">
                        <mxPoint x="260" y="200" as="targetPoint"/>
                        <Array as="points">
                            <mxPoint x="85" y="200"/>
                        </Array>
                    </mxGeometry>
                </mxCell>
                <mxCell id="11" style="edgeStyle=none;html=1;entryX=1;entryY=0.5;entryDx=0;entryDy=0;" edge="1" parent="2" source="9" target="6">
                    <mxGeometry relative="1" as="geometry">
                        <Array as="points">
                            <mxPoint x="260" y="140"/>
                        </Array>
                    </mxGeometry>
                </mxCell>
                <mxCell id="12" value="格式错误或ID占用" style="edgeLabel;html=1;align=center;verticalAlign=middle;resizable=0;points=[];" vertex="1" connectable="0" parent="11">
                    <mxGeometry x="-0.1238" relative="1" as="geometry">
                        <mxPoint as="offset"/>
                    </mxGeometry>
                </mxCell>
                <mxCell id="13" style="edgeStyle=none;html=1;" edge="1" parent="2" source="9" target="7">
                    <mxGeometry relative="1" as="geometry">
                        <mxPoint x="110" y="280" as="targetPoint"/>
                        <Array as="points">
                            <mxPoint x="260" y="280"/>
                        </Array>
                    </mxGeometry>
                </mxCell>
                <mxCell id="14" value="注册成功" style="edgeLabel;html=1;align=center;verticalAlign=middle;resizable=0;points=[];" vertex="1" connectable="0" parent="13">
                    <mxGeometry x="0.0996" relative="1" as="geometry">
                        <mxPoint as="offset"/>
                    </mxGeometry>
                </mxCell>
            </root>
        </mxGraphModel>
    </diagram>
</mxfile>